<?xml version="1.0" standalone="no"?><!DOCTYPE svg PUBLIC "-//W3C//DTD SVG 1.1//EN" "http://www.w3.org/Graphics/SVG/1.1/DTD/svg11.dtd"><svg class="icon" width="40px" height="40.00px" viewBox="0 0 1024 1024" version="1.1" xmlns="http://www.w3.org/2000/svg"><path fill="#ffffff" d="M512 81.92a222.57664 222.57664 0 0 1 137.4208 397.68064c20.2752 7.12704 39.936 15.9744 58.85952 26.29632a35.6352 35.6352 0 1 1-34.2016 62.50496 338.41152 338.41152 0 0 0-497.37728 251.12576l-1.14688 10.28096h710.36928a35.6352 35.6352 0 0 1 35.0208 29.20448l0.57344 6.43072a35.6352 35.6352 0 0 1-29.20448 35.0208l-6.38976 0.57344H137.99424a35.6352 35.6352 0 0 1-35.59424-35.6352c0-177.93024 113.50016-329.35936 272.05632-385.8432A222.57664 222.57664 0 0 1 512 81.92z m282.91072 504.91392l4.9152 4.096 111.28832 111.24736c20.8896 20.93056 8.47872 55.74656-19.08736 60.29312l-6.144 0.53248H512a35.6352 35.6352 0 0 1-6.38976-70.656l6.38976-0.57344 287.9488-0.08192-50.3808-50.3808a35.6352 35.6352 0 0 1-4.13696-45.4656l4.096-4.9152a35.6352 35.6352 0 0 1 45.4656-4.096zM512 153.14944a151.3472 151.3472 0 1 0 0 302.6944 151.3472 151.3472 0 0 0 0-302.6944z" /></svg>