<?xml version="1.0" standalone="no"?><!DOCTYPE svg PUBLIC "-//W3C//DTD SVG 1.1//EN" "http://www.w3.org/Graphics/SVG/1.1/DTD/svg11.dtd"><svg class="icon" width="40px" height="40.00px" viewBox="0 0 1024 1024" version="1.1" xmlns="http://www.w3.org/2000/svg"><path fill="#ffffff" d="M769.28 85.333333a169.386667 169.386667 0 0 1 53.162667 330.24 169.344 169.344 0 0 1 115.285333 143.146667l0.725333 8.832 0.213334 8.789333V938.666667h-338.773334v-143.701334l-23.893333 31.914667a40.533333 40.533333 0 0 1-4.906667 5.12l-2.816 2.304-4.608 2.901333-4.906666 2.261334-4.48 1.450666-3.968 0.810667-4.608 0.426667-5.248-0.128-5.333334-0.853334-4.266666-1.237333-3.669334-1.450667-3.584-1.962666-4.906666-3.285334-94.592-75.690666V938.666667H85.333333v-362.325334a169.472 169.472 0 0 1 116.138667-160.853333 169.386667 169.386667 0 1 1 106.453333 0.085333 169.386667 169.386667 0 0 1 115.242667 143.104l0.682667 8.874667 0.256 8.789333v76.928l112.64 90.069334 63.146666-84.224v-82.773334a169.472 169.472 0 0 1 116.181334-160.853333A169.386667 169.386667 0 0 1 769.28 85.333333zM263.594667 488.832l-9.301334-0.426667h0.426667a87.893333 87.893333 0 0 0-87.04 75.136l-0.64 6.442667-0.213333 6.357333v280.832h175.786666v-280.832c0-40.789333-27.904-75.690667-66.261333-85.248l-6.826667-1.450666-5.930666-0.810667z m514.56 0l-9.258667-0.426667h0.426667a87.893333 87.893333 0 0 0-87.04 75.136l-0.682667 6.442667-0.213333 6.357333v280.832h175.786666v-280.832c0-40.789333-27.904-75.690667-66.218666-85.248l-6.869334-1.450666-5.930666-0.810667zM254.72 166.826667a87.893333 87.893333 0 1 0 0 175.786666 87.893333 87.893333 0 0 0 0-175.786666z m514.56 0a87.893333 87.893333 0 1 0 0 175.786666 87.893333 87.893333 0 0 0 0-175.786666z" /></svg>